<svg width="1555" height="1146" viewBox="0 0 1555 1146" fill="none" xmlns="http://www.w3.org/2000/svg">
<path d="M1265 510C1265 507.791 1266.79 506 1269 506H1368C1370.21 506 1372 507.791 1372 510V624.015C1372 627.308 1368.24 629.191 1365.6 627.219L1363.42 625.582C1360.57 623.458 1356.68 623.458 1353.83 625.582L1350.04 628.418C1347.2 630.542 1343.3 630.542 1340.46 628.418L1336.67 625.582C1333.82 623.458 1329.93 623.458 1327.08 625.582L1323.29 628.418C1320.45 630.542 1316.55 630.542 1313.71 628.418L1309.92 625.582C1307.07 623.458 1303.18 623.458 1300.33 625.582L1296.54 628.418C1293.7 630.542 1289.8 630.542 1286.96 628.418L1283.17 625.582C1280.32 623.458 1276.43 623.458 1273.58 625.582L1271.4 627.219C1268.76 629.191 1265 627.308 1265 624.015V510Z" fill="white" stroke="#D53DEA" stroke-width="6"/>
<g filter="url(#filter0_d)">
<path d="M1329.81 543.636C1329.81 543.636 1319.93 543.636 1313.34 543.636C1306.74 543.636 1303 549.491 1303 553.746C1303 558.001 1306.5 564.291 1313.34 564.291C1320.18 564.291 1318.84 564.291 1324.79 564.291C1330.75 564.291 1335 569.166 1335 574.667C1335 580.167 1330.34 584.364 1325.48 584.364C1320.61 584.364 1306.68 584.364 1306.68 584.364" stroke="#D53DEA" stroke-width="6" stroke-linecap="round"/>
</g>
<path d="M1319.23 595.265L1319.18 584.364" stroke="#D53DEA" stroke-width="6" stroke-linecap="round"/>
<path d="M1319.23 542.901L1319.18 532" stroke="#D53DEA" stroke-width="6" stroke-linecap="round"/>
<path opacity="0.07" d="M1150 572H890.711C877.45 572 864.732 577.268 855.355 586.645L812.645 629.355C803.268 638.732 790.55 644 777.289 644H4" stroke="#D53DEA" stroke-width="10"/>
<path opacity="0.07" d="M1210 410L1119.64 319.645C1110.27 310.268 1097.55 305 1084.29 305H556.948C544.739 305 532.953 300.533 523.811 292.443L352.189 140.557C343.047 132.466 331.261 128 319.052 128H10" stroke="#D53DEA" stroke-width="10"/>
<path opacity="0.07" d="M1355 348V220.711C1355 207.45 1360.27 194.732 1369.64 185.355L1551 4" stroke="#D53DEA" stroke-width="10"/>
<path opacity="0.07" d="M1360 782V953.289C1360 966.55 1354.73 979.268 1345.36 988.645L1207.64 1126.36C1198.27 1135.73 1185.55 1141 1172.29 1141H988.711C975.45 1141 962.732 1135.73 953.355 1126.36L946.27 1119.27C936.893 1109.89 924.175 1104.62 910.914 1104.62H795.125" stroke="#D53DEA" stroke-width="10"/>
<path opacity="0.07" d="M1210 718L1073.64 854.355C1064.27 863.732 1051.55 869 1038.29 869H352.711C339.45 869 326.732 874.268 317.355 883.645L206.145 994.855C196.768 1004.23 184.05 1009.5 170.789 1009.5H0" stroke="#D53DEA" stroke-width="10"/>
<defs>
<filter id="filter0_d" x="1290" y="532.636" width="58" height="66.7273" filterUnits="userSpaceOnUse" color-interpolation-filters="sRGB">
<feFlood flood-opacity="0" result="BackgroundImageFix"/>
<feColorMatrix in="SourceAlpha" type="matrix" values="0 0 0 0 0 0 0 0 0 0 0 0 0 0 0 0 0 0 127 0"/>
<feOffset dy="2"/>
<feGaussianBlur stdDeviation="5"/>
<feColorMatrix type="matrix" values="0 0 0 0 0.054902 0 0 0 0 0.333333 0 0 0 0 0.603922 0 0 0 0.1 0"/>
<feBlend mode="normal" in2="BackgroundImageFix" result="effect1_dropShadow"/>
<feBlend mode="normal" in="SourceGraphic" in2="effect1_dropShadow" result="shape"/>
</filter>
</defs>
</svg>
