<svg width="251" height="50" viewBox="0 0 251 50" fill="none" xmlns="http://www.w3.org/2000/svg">
<path d="M86.6172 35H81.832V15.0938H86.6172V35ZM94.0957 20.207L94.2461 21.9434C95.2943 20.6035 96.7025 19.9336 98.4707 19.9336C100.339 19.9336 101.602 20.6764 102.258 22.1621C103.26 20.6764 104.71 19.9336 106.605 19.9336C109.604 19.9336 111.145 21.7474 111.227 25.375V35H106.605V25.6621C106.605 24.9056 106.478 24.3542 106.223 24.0078C105.967 23.6615 105.503 23.4883 104.828 23.4883C103.917 23.4883 103.238 23.8939 102.791 24.7051L102.805 24.8965V35H98.1836V25.6895C98.1836 24.9147 98.0605 24.3542 97.8145 24.0078C97.5684 23.6615 97.099 23.4883 96.4062 23.4883C95.5221 23.4883 94.8477 23.8939 94.3828 24.7051V35H89.7754V20.207H94.0957ZM122.191 35C122.027 34.6992 121.882 34.2572 121.754 33.6738C120.906 34.7402 119.721 35.2734 118.199 35.2734C116.805 35.2734 115.62 34.8542 114.645 34.0156C113.669 33.168 113.182 32.1061 113.182 30.8301C113.182 29.2259 113.774 28.0137 114.959 27.1934C116.144 26.373 117.867 25.9629 120.127 25.9629H121.549V25.1836C121.549 23.8255 120.961 23.1465 119.785 23.1465C118.691 23.1465 118.145 23.6842 118.145 24.7598H113.537C113.537 23.3288 114.143 22.1667 115.355 21.2734C116.577 20.3802 118.131 19.9336 120.018 19.9336C121.904 19.9336 123.395 20.3939 124.488 21.3145C125.582 22.235 126.143 23.4974 126.17 25.1016V31.6504C126.188 33.0085 126.398 34.0475 126.799 34.7676V35H122.191ZM119.307 31.9922C119.881 31.9922 120.355 31.8691 120.729 31.623C121.111 31.377 121.385 31.099 121.549 30.7891V28.4238H120.209C118.605 28.4238 117.803 29.1439 117.803 30.584C117.803 31.0033 117.944 31.3451 118.227 31.6094C118.509 31.8646 118.869 31.9922 119.307 31.9922ZM132.965 20.207L133.115 21.9434C134.136 20.6035 135.544 19.9336 137.34 19.9336C138.88 19.9336 140.029 20.3939 140.785 21.3145C141.551 22.235 141.947 23.6204 141.975 25.4707V35H137.354V25.6621C137.354 24.9147 137.203 24.3678 136.902 24.0215C136.602 23.666 136.055 23.4883 135.262 23.4883C134.359 23.4883 133.689 23.8438 133.252 24.5547V35H128.645V20.207H132.965ZM149.398 35H144.777V20.207H149.398V35ZM144.504 16.3926C144.504 15.7363 144.741 15.1986 145.215 14.7793C145.689 14.36 146.304 14.1504 147.061 14.1504C147.817 14.1504 148.432 14.36 148.906 14.7793C149.38 15.1986 149.617 15.7363 149.617 16.3926C149.617 17.0488 149.38 17.5866 148.906 18.0059C148.432 18.4251 147.817 18.6348 147.061 18.6348C146.304 18.6348 145.689 18.4251 145.215 18.0059C144.741 17.5866 144.504 17.0488 144.504 16.3926ZM159.434 35V15.0938H166.584C169.145 15.0938 171.091 15.5632 172.422 16.502C173.762 17.4408 174.432 18.8034 174.432 20.5898C174.432 21.6198 174.195 22.4993 173.721 23.2285C173.247 23.9577 172.549 24.4954 171.629 24.8418C172.668 25.1152 173.465 25.6257 174.021 26.373C174.577 27.1204 174.855 28.0319 174.855 29.1074C174.855 31.0579 174.236 32.5254 172.996 33.5098C171.766 34.485 169.938 34.9818 167.514 35H159.434ZM164.232 26.5371V31.3086H167.377C168.243 31.3086 168.908 31.1126 169.373 30.7207C169.838 30.3197 170.07 29.7591 170.07 29.0391C170.07 27.3802 169.245 26.5462 167.596 26.5371H164.232ZM164.232 23.3926H166.734C167.783 23.3835 168.53 23.1921 168.977 22.8184C169.423 22.4447 169.646 21.8932 169.646 21.1641C169.646 20.3255 169.405 19.724 168.922 19.3594C168.439 18.9857 167.66 18.7988 166.584 18.7988H164.232V23.3926ZM182.156 35H177.535V20.207H182.156V35ZM177.262 16.3926C177.262 15.7363 177.499 15.1986 177.973 14.7793C178.447 14.36 179.062 14.1504 179.818 14.1504C180.575 14.1504 181.19 14.36 181.664 14.7793C182.138 15.1986 182.375 15.7363 182.375 16.3926C182.375 17.0488 182.138 17.5866 181.664 18.0059C181.19 18.4251 180.575 18.6348 179.818 18.6348C179.062 18.6348 178.447 18.4251 177.973 18.0059C177.499 17.5866 177.262 17.0488 177.262 16.3926ZM189.867 35H185.246V14H189.867V35ZM197.578 35H192.957V14H197.578V35ZM205.439 28.2461V35H200.641V15.0938H208.584C210.106 15.0938 211.451 15.3763 212.617 15.9414C213.793 16.4974 214.7 17.2949 215.338 18.334C215.985 19.3639 216.309 20.5352 216.309 21.8477C216.309 23.7891 215.611 25.3431 214.217 26.5098C212.831 27.6673 210.926 28.2461 208.502 28.2461H205.439ZM205.439 24.541H208.584C209.514 24.541 210.22 24.3086 210.703 23.8438C211.195 23.3789 211.441 22.7227 211.441 21.875C211.441 20.9453 211.191 20.2025 210.689 19.6465C210.188 19.0905 209.505 18.8079 208.639 18.7988H205.439V24.541ZM226.836 35C226.672 34.6992 226.526 34.2572 226.398 33.6738C225.551 34.7402 224.366 35.2734 222.844 35.2734C221.449 35.2734 220.264 34.8542 219.289 34.0156C218.314 33.168 217.826 32.1061 217.826 30.8301C217.826 29.2259 218.419 28.0137 219.604 27.1934C220.788 26.373 222.511 25.9629 224.771 25.9629H226.193V25.1836C226.193 23.8255 225.605 23.1465 224.43 23.1465C223.336 23.1465 222.789 23.6842 222.789 24.7598H218.182C218.182 23.3288 218.788 22.1667 220 21.2734C221.221 20.3802 222.775 19.9336 224.662 19.9336C226.549 19.9336 228.039 20.3939 229.133 21.3145C230.227 22.235 230.787 23.4974 230.814 25.1016V31.6504C230.833 33.0085 231.042 34.0475 231.443 34.7676V35H226.836ZM223.951 31.9922C224.525 31.9922 224.999 31.8691 225.373 31.623C225.756 31.377 226.029 31.099 226.193 30.7891V28.4238H224.854C223.249 28.4238 222.447 29.1439 222.447 30.584C222.447 31.0033 222.589 31.3451 222.871 31.6094C223.154 31.8646 223.514 31.9922 223.951 31.9922ZM239.072 28.5469L241.533 20.207H246.469L240.439 37.4746L240.18 38.1035C239.323 40.0176 237.81 40.9746 235.641 40.9746C235.039 40.9746 234.406 40.8835 233.74 40.7012V37.4062H234.342C234.989 37.4062 235.481 37.3105 235.818 37.1191C236.165 36.9368 236.42 36.6042 236.584 36.1211L236.953 35.1367L231.812 20.207H236.734L239.072 28.5469Z" fill="white"/>
<path d="M1 25C1 11.7452 11.7452 1 25 0.999998C38.2548 0.999997 49 11.7452 49 25C49 38.2548 38.2548 49 25 49C11.7452 49 1 38.2548 1 25Z" fill="#D53DEA" stroke="white" stroke-width="2"/>
<mask id="path-3-inside-1" fill="white">
<path fill-rule="evenodd" clip-rule="evenodd" d="M16.8816 8.39587C17.681 5.46933 18.999 2.75681 20.7305 0.363144C8.95732 2.38902 0 12.6485 0 25C2.83618e-06 38.8071 11.1929 50 25 50C33.341 50 40.728 45.9152 45.2695 39.6369C43.8821 39.8756 42.4556 40 41 40C39.3801 40 37.7961 39.8459 36.262 39.5516C35.9178 39.8319 35.4785 40 35 40C34.1568 40 33.4354 39.4782 33.1413 38.7398C32.2711 38.4519 31.422 38.1175 30.5971 37.7395C30.0956 37.9084 29.5585 38 29 38C26.3532 38 24.1868 35.9434 24.0115 33.3411C23.5232 32.8886 23.053 32.4169 22.6021 31.9271C20.0704 31.5114 18.1207 29.3669 18.0054 26.7458C16.2548 26.1296 15 24.4613 15 22.5C15 21.2343 15.5226 20.0906 16.3637 19.273C16.1246 17.8845 16 16.4568 16 15C16 14.6552 16.007 14.312 16.0208 13.9705C15.39 13.3375 15 12.4643 15 11.5C15 10.1509 15.7633 8.98011 16.8816 8.39587Z"/>
</mask>
<path fill-rule="evenodd" clip-rule="evenodd" d="M16.8816 8.39587C17.681 5.46933 18.999 2.75681 20.7305 0.363144C8.95732 2.38902 0 12.6485 0 25C2.83618e-06 38.8071 11.1929 50 25 50C33.341 50 40.728 45.9152 45.2695 39.6369C43.8821 39.8756 42.4556 40 41 40C39.3801 40 37.7961 39.8459 36.262 39.5516C35.9178 39.8319 35.4785 40 35 40C34.1568 40 33.4354 39.4782 33.1413 38.7398C32.2711 38.4519 31.422 38.1175 30.5971 37.7395C30.0956 37.9084 29.5585 38 29 38C26.3532 38 24.1868 35.9434 24.0115 33.3411C23.5232 32.8886 23.053 32.4169 22.6021 31.9271C20.0704 31.5114 18.1207 29.3669 18.0054 26.7458C16.2548 26.1296 15 24.4613 15 22.5C15 21.2343 15.5226 20.0906 16.3637 19.273C16.1246 17.8845 16 16.4568 16 15C16 14.6552 16.007 14.312 16.0208 13.9705C15.39 13.3375 15 12.4643 15 11.5C15 10.1509 15.7633 8.98011 16.8816 8.39587Z" fill="white"/>
<path d="M20.7305 0.363144L24.7817 3.29366L31.9707 -6.64451L19.8826 -4.56444L20.7305 0.363144ZM16.8816 8.39587L19.1969 12.8275L21.13 11.8175L21.7048 9.71352L16.8816 8.39587ZM0 25H-5V25L0 25ZM45.2695 39.6369L49.3207 42.5674L56.5097 32.6292L44.4216 34.7093L45.2695 39.6369ZM36.262 39.5516L37.204 34.6412L34.9134 34.2018L33.1048 35.6745L36.262 39.5516ZM33.1413 38.7398L37.7863 36.8893L36.9239 34.7248L34.7119 33.9929L33.1413 38.7398ZM30.5971 37.7395L32.68 33.194L30.8787 32.3686L29.001 33.0011L30.5971 37.7395ZM24.0115 33.3411L29.0001 33.005L28.8667 31.0236L27.41 29.6737L24.0115 33.3411ZM22.6021 31.9271L26.2808 28.5407L25.1133 27.2724L23.4123 26.9931L22.6021 31.9271ZM18.0054 26.7458L23.0006 26.5261L22.8521 23.1512L19.6656 22.0295L18.0054 26.7458ZM16.3637 19.273L19.8488 22.8583L21.7385 21.0214L21.2912 18.4244L16.3637 19.273ZM16.0208 13.9705L21.0167 14.1729L21.1052 11.9892L19.5625 10.4411L16.0208 13.9705ZM16.6793 -2.56737C14.6026 0.30351 13.0193 3.56065 12.0583 7.07822L21.7048 9.71352C22.3428 7.378 23.3953 5.21012 24.7817 3.29366L16.6793 -2.56737ZM5 25C5 15.1239 12.1635 6.9108 21.5784 5.29072L19.8826 -4.56444C5.75115 -2.13276 -5 10.1731 -5 25H5ZM25 45C13.9543 45 5 36.0457 5 25L-5 25C-5 41.5686 8.43146 55 25 55V45ZM41.2183 36.7064C37.5766 41.7408 31.669 45 25 45V55C35.013 55 43.8794 50.0896 49.3207 42.5674L41.2183 36.7064ZM41 45C42.741 45 44.4511 44.8512 46.1174 44.5644L44.4216 34.7093C43.3131 34.9 42.1702 35 41 35V45ZM35.32 44.4621C37.163 44.8156 39.0623 45 41 45V35C39.6978 35 38.4292 34.8762 37.204 34.6412L35.32 44.4621ZM35 45C36.6702 45 38.2158 44.4088 39.4192 43.4287L33.1048 35.6745C33.6198 35.2551 34.2869 35 35 35V45ZM28.4963 40.5903C29.5223 43.1656 32.0409 45 35 45V35C36.2727 35 37.3486 35.7908 37.7863 36.8893L28.4963 40.5903ZM28.5143 42.285C29.505 42.739 30.525 43.1408 31.5707 43.4868L34.7119 33.9929C34.0171 33.7631 33.3391 33.496 32.68 33.194L28.5143 42.285ZM29 43C30.1082 43 31.1841 42.8178 32.1933 42.4779L29.001 33.0011C29.0032 33.0004 29.0051 32.9999 29.0061 32.9998C29.0073 32.9996 29.0055 33 29 33V43ZM19.0228 33.6771C19.3737 38.8867 23.7044 43 29 43V33C28.9936 33 28.9923 32.9995 28.9945 32.9999C28.9964 33.0003 28.9988 33.001 29.0011 33.0019C29.005 33.0035 29.0041 33.0039 29.0007 33.0007C28.9992 32.9993 28.9981 32.9979 28.9974 32.997C28.9967 32.996 28.9968 32.9961 28.9974 32.9973C28.9981 32.9987 28.9989 33.0008 28.9996 33.0034C29.0004 33.0062 29.0003 33.0072 29.0001 33.005L19.0228 33.6771ZM18.9235 35.3134C19.4639 35.9006 20.0276 36.4661 20.6129 37.0085L27.41 29.6737C27.0188 29.3111 26.6421 28.9332 26.2808 28.5407L18.9235 35.3134ZM13.0102 26.9656C13.2307 31.9782 16.9534 36.0665 21.792 36.861L23.4123 26.9931C23.1874 26.9562 23.0107 26.7555 23.0006 26.5261L13.0102 26.9656ZM10 22.5C10 26.6484 12.6562 30.1636 16.3452 31.4622L19.6656 22.0295C19.8534 22.0956 20 22.2743 20 22.5H10ZM12.8787 15.6877C11.109 17.4078 10 19.8288 10 22.5H20C20 22.6397 19.9361 22.7734 19.8488 22.8583L12.8787 15.6877ZM11 15C11 16.7424 11.1491 18.454 11.4363 20.1216L21.2912 18.4244C21.1001 17.315 21 16.1712 21 15H11ZM11.0249 13.7682C11.0084 14.177 11 14.5877 11 15H21C21 14.7227 21.0056 14.4469 21.0167 14.1729L11.0249 13.7682ZM10 11.5C10 13.8404 10.9525 15.968 12.4792 17.4999L19.5625 10.4411C19.8274 10.707 20 11.0882 20 11.5H10ZM14.5662 3.96424C11.863 5.37656 10 8.21661 10 11.5H20C20 12.0852 19.6636 12.5837 19.1969 12.8275L14.5662 3.96424Z" fill="white" mask="url(#path-3-inside-1)"/>
<path d="M1 25C1 11.7452 11.7452 1 25 0.999998C38.2548 0.999997 49 11.7452 49 25C49 38.2548 38.2548 49 25 49C11.7452 49 1 38.2548 1 25Z" stroke="white" stroke-width="2"/>
<path fill-rule="evenodd" clip-rule="evenodd" d="M62.3975 35.7221L64.2735 36.4591C66.0133 33.2112 67 29.4994 67 25.5572C67 21.2777 65.8373 17.2699 63.8107 13.8322L61.9791 14.6662C63.8967 17.8463 65 21.5729 65 25.5572C65 29.242 64.0563 32.7065 62.3975 35.7221ZM60.6563 35.0381C62.2416 32.2389 63.1466 29.0037 63.1466 25.5572C63.1466 21.8463 62.0975 18.3805 60.2797 15.4401L58.443 16.2764C60.1546 18.9568 61.1466 22.1411 61.1466 25.5572C61.1466 28.7468 60.2817 31.7345 58.7737 34.2984L60.6563 35.0381ZM57.0242 33.6111C58.4633 31.2673 59.2932 28.5092 59.2932 25.5572C59.2932 22.414 58.3524 19.4907 56.737 17.0532L54.8903 17.8942C56.4049 20.0665 57.2932 22.7081 57.2932 25.5572C57.2932 28.2534 56.4977 30.7638 55.1286 32.8665L57.0242 33.6111Z" fill="white"/>
</svg>
