<svg width="251" height="50" viewBox="0 0 251 50" fill="none" xmlns="http://www.w3.org/2000/svg">
<path d="M90.6172 35H85.832V15.0938H90.6172V35ZM98.0957 20.207L98.2461 21.9434C99.2943 20.6035 100.702 19.9336 102.471 19.9336C104.339 19.9336 105.602 20.6764 106.258 22.1621C107.26 20.6764 108.71 19.9336 110.605 19.9336C113.604 19.9336 115.145 21.7474 115.227 25.375V35H110.605V25.6621C110.605 24.9056 110.478 24.3542 110.223 24.0078C109.967 23.6615 109.503 23.4883 108.828 23.4883C107.917 23.4883 107.238 23.8939 106.791 24.7051L106.805 24.8965V35H102.184V25.6895C102.184 24.9147 102.061 24.3542 101.814 24.0078C101.568 23.6615 101.099 23.4883 100.406 23.4883C99.5221 23.4883 98.8477 23.8939 98.3828 24.7051V35H93.7754V20.207H98.0957ZM126.191 35C126.027 34.6992 125.882 34.2572 125.754 33.6738C124.906 34.7402 123.721 35.2734 122.199 35.2734C120.805 35.2734 119.62 34.8542 118.645 34.0156C117.669 33.168 117.182 32.1061 117.182 30.8301C117.182 29.2259 117.774 28.0137 118.959 27.1934C120.144 26.373 121.867 25.9629 124.127 25.9629H125.549V25.1836C125.549 23.8255 124.961 23.1465 123.785 23.1465C122.691 23.1465 122.145 23.6842 122.145 24.7598H117.537C117.537 23.3288 118.143 22.1667 119.355 21.2734C120.577 20.3802 122.131 19.9336 124.018 19.9336C125.904 19.9336 127.395 20.3939 128.488 21.3145C129.582 22.235 130.143 23.4974 130.17 25.1016V31.6504C130.188 33.0085 130.398 34.0475 130.799 34.7676V35H126.191ZM123.307 31.9922C123.881 31.9922 124.355 31.8691 124.729 31.623C125.111 31.377 125.385 31.099 125.549 30.7891V28.4238H124.209C122.605 28.4238 121.803 29.1439 121.803 30.584C121.803 31.0033 121.944 31.3451 122.227 31.6094C122.509 31.8646 122.869 31.9922 123.307 31.9922ZM136.965 20.207L137.115 21.9434C138.136 20.6035 139.544 19.9336 141.34 19.9336C142.88 19.9336 144.029 20.3939 144.785 21.3145C145.551 22.235 145.947 23.6204 145.975 25.4707V35H141.354V25.6621C141.354 24.9147 141.203 24.3678 140.902 24.0215C140.602 23.666 140.055 23.4883 139.262 23.4883C138.359 23.4883 137.689 23.8438 137.252 24.5547V35H132.645V20.207H136.965ZM153.398 35H148.777V20.207H153.398V35ZM148.504 16.3926C148.504 15.7363 148.741 15.1986 149.215 14.7793C149.689 14.36 150.304 14.1504 151.061 14.1504C151.817 14.1504 152.432 14.36 152.906 14.7793C153.38 15.1986 153.617 15.7363 153.617 16.3926C153.617 17.0488 153.38 17.5866 152.906 18.0059C152.432 18.4251 151.817 18.6348 151.061 18.6348C150.304 18.6348 149.689 18.4251 149.215 18.0059C148.741 17.5866 148.504 17.0488 148.504 16.3926ZM163.434 35V15.0938H170.584C173.145 15.0938 175.091 15.5632 176.422 16.502C177.762 17.4408 178.432 18.8034 178.432 20.5898C178.432 21.6198 178.195 22.4993 177.721 23.2285C177.247 23.9577 176.549 24.4954 175.629 24.8418C176.668 25.1152 177.465 25.6257 178.021 26.373C178.577 27.1204 178.855 28.0319 178.855 29.1074C178.855 31.0579 178.236 32.5254 176.996 33.5098C175.766 34.485 173.938 34.9818 171.514 35H163.434ZM168.232 26.5371V31.3086H171.377C172.243 31.3086 172.908 31.1126 173.373 30.7207C173.838 30.3197 174.07 29.7591 174.07 29.0391C174.07 27.3802 173.245 26.5462 171.596 26.5371H168.232ZM168.232 23.3926H170.734C171.783 23.3835 172.53 23.1921 172.977 22.8184C173.423 22.4447 173.646 21.8932 173.646 21.1641C173.646 20.3255 173.405 19.724 172.922 19.3594C172.439 18.9857 171.66 18.7988 170.584 18.7988H168.232V23.3926ZM186.156 35H181.535V20.207H186.156V35ZM181.262 16.3926C181.262 15.7363 181.499 15.1986 181.973 14.7793C182.447 14.36 183.062 14.1504 183.818 14.1504C184.575 14.1504 185.19 14.36 185.664 14.7793C186.138 15.1986 186.375 15.7363 186.375 16.3926C186.375 17.0488 186.138 17.5866 185.664 18.0059C185.19 18.4251 184.575 18.6348 183.818 18.6348C183.062 18.6348 182.447 18.4251 181.973 18.0059C181.499 17.5866 181.262 17.0488 181.262 16.3926ZM193.867 35H189.246V14H193.867V35ZM201.578 35H196.957V14H201.578V35ZM209.439 28.2461V35H204.641V15.0938H212.584C214.106 15.0938 215.451 15.3763 216.617 15.9414C217.793 16.4974 218.7 17.2949 219.338 18.334C219.985 19.3639 220.309 20.5352 220.309 21.8477C220.309 23.7891 219.611 25.3431 218.217 26.5098C216.831 27.6673 214.926 28.2461 212.502 28.2461H209.439ZM209.439 24.541H212.584C213.514 24.541 214.22 24.3086 214.703 23.8438C215.195 23.3789 215.441 22.7227 215.441 21.875C215.441 20.9453 215.191 20.2025 214.689 19.6465C214.188 19.0905 213.505 18.8079 212.639 18.7988H209.439V24.541ZM230.836 35C230.672 34.6992 230.526 34.2572 230.398 33.6738C229.551 34.7402 228.366 35.2734 226.844 35.2734C225.449 35.2734 224.264 34.8542 223.289 34.0156C222.314 33.168 221.826 32.1061 221.826 30.8301C221.826 29.2259 222.419 28.0137 223.604 27.1934C224.788 26.373 226.511 25.9629 228.771 25.9629H230.193V25.1836C230.193 23.8255 229.605 23.1465 228.43 23.1465C227.336 23.1465 226.789 23.6842 226.789 24.7598H222.182C222.182 23.3288 222.788 22.1667 224 21.2734C225.221 20.3802 226.775 19.9336 228.662 19.9336C230.549 19.9336 232.039 20.3939 233.133 21.3145C234.227 22.235 234.787 23.4974 234.814 25.1016V31.6504C234.833 33.0085 235.042 34.0475 235.443 34.7676V35H230.836ZM227.951 31.9922C228.525 31.9922 228.999 31.8691 229.373 31.623C229.756 31.377 230.029 31.099 230.193 30.7891V28.4238H228.854C227.249 28.4238 226.447 29.1439 226.447 30.584C226.447 31.0033 226.589 31.3451 226.871 31.6094C227.154 31.8646 227.514 31.9922 227.951 31.9922ZM243.072 28.5469L245.533 20.207H250.469L244.439 37.4746L244.18 38.1035C243.323 40.0176 241.81 40.9746 239.641 40.9746C239.039 40.9746 238.406 40.8835 237.74 40.7012V37.4062H238.342C238.989 37.4062 239.481 37.3105 239.818 37.1191C240.165 36.9368 240.42 36.6042 240.584 36.1211L240.953 35.1367L235.812 20.207H240.734L243.072 28.5469Z" fill="#D53DEA"/>
<path d="M1 25C1 11.7452 11.7452 1 25 0.999998C38.2548 0.999997 49 11.7452 49 25C49 38.2548 38.2548 49 25 49C11.7452 49 1 38.2548 1 25Z" fill="#D53DEA" stroke="#D53DEA" stroke-width="2"/>
<mask id="path-3-inside-1" fill="white">
<path fill-rule="evenodd" clip-rule="evenodd" d="M16.8816 8.39601C17.681 5.46946 18.999 2.75695 20.7305 0.363281C8.95732 2.38916 0 12.6486 0 25.0001C2.83618e-06 38.8073 11.1929 50.0001 25 50.0001C33.341 50.0001 40.728 45.9153 45.2695 39.637C43.8821 39.8758 42.4556 40.0001 41 40.0001C39.3801 40.0001 37.7961 39.8461 36.262 39.5518C35.9178 39.8321 35.4785 40.0001 35 40.0001C34.1568 40.0001 33.4354 39.4783 33.1413 38.74C32.2711 38.4521 31.422 38.1176 30.5971 37.7396C30.0956 37.9086 29.5585 38.0001 29 38.0001C26.3532 38.0001 24.1868 35.9436 24.0115 33.3412C23.5232 32.8887 23.053 32.417 22.6021 31.9272C20.0704 31.5115 18.1207 29.367 18.0054 26.746C16.2548 26.1298 15 24.4615 15 22.5001C15 21.2344 15.5226 20.0907 16.3637 19.2731C16.1246 17.8846 16 16.4569 16 15.0001C16 14.6553 16.007 14.3121 16.0208 13.9707C15.39 13.3377 15 12.4644 15 11.5001C15 10.1511 15.7633 8.98025 16.8816 8.39601Z"/>
</mask>
<path fill-rule="evenodd" clip-rule="evenodd" d="M16.8816 8.39601C17.681 5.46946 18.999 2.75695 20.7305 0.363281C8.95732 2.38916 0 12.6486 0 25.0001C2.83618e-06 38.8073 11.1929 50.0001 25 50.0001C33.341 50.0001 40.728 45.9153 45.2695 39.637C43.8821 39.8758 42.4556 40.0001 41 40.0001C39.3801 40.0001 37.7961 39.8461 36.262 39.5518C35.9178 39.8321 35.4785 40.0001 35 40.0001C34.1568 40.0001 33.4354 39.4783 33.1413 38.74C32.2711 38.4521 31.422 38.1176 30.5971 37.7396C30.0956 37.9086 29.5585 38.0001 29 38.0001C26.3532 38.0001 24.1868 35.9436 24.0115 33.3412C23.5232 32.8887 23.053 32.417 22.6021 31.9272C20.0704 31.5115 18.1207 29.367 18.0054 26.746C16.2548 26.1298 15 24.4615 15 22.5001C15 21.2344 15.5226 20.0907 16.3637 19.2731C16.1246 17.8846 16 16.4569 16 15.0001C16 14.6553 16.007 14.3121 16.0208 13.9707C15.39 13.3377 15 12.4644 15 11.5001C15 10.1511 15.7633 8.98025 16.8816 8.39601Z" fill="white"/>
<path d="M20.7305 0.363281L24.7817 3.2938L31.9707 -6.64437L19.8826 -4.5643L20.7305 0.363281ZM16.8816 8.39601L19.1969 12.8276L21.13 11.8177L21.7048 9.71366L16.8816 8.39601ZM0 25.0001H-5V25.0001L0 25.0001ZM45.2695 39.637L49.3207 42.5675L56.5097 32.6293L44.4216 34.7094L45.2695 39.637ZM36.262 39.5518L37.204 34.6413L34.9134 34.2019L33.1048 35.6747L36.262 39.5518ZM33.1413 38.74L37.7863 36.8895L36.9239 34.7249L34.7119 33.993L33.1413 38.74ZM30.5971 37.7396L32.68 33.1941L30.8787 32.3687L29.001 33.0012L30.5971 37.7396ZM24.0115 33.3412L29.0001 33.0051L28.8667 31.0237L27.41 29.6738L24.0115 33.3412ZM22.6021 31.9272L26.2808 28.5409L25.1133 27.2726L23.4123 26.9933L22.6021 31.9272ZM18.0054 26.746L23.0006 26.5263L22.8521 23.1513L19.6656 22.0296L18.0054 26.746ZM16.3637 19.2731L19.8488 22.8584L21.7385 21.0216L21.2912 18.4245L16.3637 19.2731ZM16.0208 13.9707L21.0167 14.173L21.1052 11.9893L19.5625 10.4413L16.0208 13.9707ZM16.6793 -2.56723C14.6026 0.303647 13.0193 3.56079 12.0583 7.07835L21.7048 9.71366C22.3428 7.37814 23.3953 5.21026 24.7817 3.2938L16.6793 -2.56723ZM5 25.0001C5 15.124 12.1635 6.91094 21.5784 5.29086L19.8826 -4.5643C5.75115 -2.13262 -5 10.1732 -5 25.0001H5ZM25 45.0001C13.9543 45.0001 5 36.0458 5 25.0001L-5 25.0001C-5 41.5687 8.43146 55.0001 25 55.0001V45.0001ZM41.2183 36.7065C37.5766 41.7409 31.669 45.0001 25 45.0001V55.0001C35.013 55.0001 43.8794 50.0897 49.3207 42.5675L41.2183 36.7065ZM41 45.0001C42.741 45.0001 44.4511 44.8513 46.1174 44.5646L44.4216 34.7094C43.3131 34.9002 42.1702 35.0001 41 35.0001V45.0001ZM35.32 44.4622C37.163 44.8158 39.0623 45.0001 41 45.0001V35.0001C39.6978 35.0001 38.4292 34.8764 37.204 34.6413L35.32 44.4622ZM35 45.0001C36.6702 45.0001 38.2158 44.4089 39.4192 43.4289L33.1048 35.6747C33.6198 35.2553 34.2869 35.0001 35 35.0001V45.0001ZM28.4963 40.5905C29.5223 43.1657 32.0409 45.0001 35 45.0001V35.0001C36.2727 35.0001 37.3486 35.7909 37.7863 36.8895L28.4963 40.5905ZM28.5143 42.2851C29.505 42.7391 30.525 43.1409 31.5707 43.4869L34.7119 33.993C34.0171 33.7632 33.3391 33.4961 32.68 33.1941L28.5143 42.2851ZM29 43.0001C30.1082 43.0001 31.1841 42.818 32.1933 42.478L29.001 33.0012C29.0032 33.0005 29.0051 33.0001 29.0061 32.9999C29.0073 32.9997 29.0055 33.0001 29 33.0001V43.0001ZM19.0228 33.6773C19.3737 38.8868 23.7044 43.0001 29 43.0001V33.0001C28.9936 33.0001 28.9923 32.9996 28.9945 33C28.9964 33.0004 28.9988 33.0011 29.0011 33.002C29.005 33.0036 29.0041 33.004 29.0007 33.0008C28.9992 32.9994 28.9981 32.9981 28.9974 32.9971C28.9967 32.9962 28.9968 32.9962 28.9974 32.9974C28.9981 32.9988 28.9989 33.001 28.9996 33.0036C29.0004 33.0064 29.0003 33.0073 29.0001 33.0051L19.0228 33.6773ZM18.9235 35.3136C19.4639 35.9007 20.0276 36.4662 20.6129 37.0086L27.41 29.6738C27.0188 29.3113 26.6421 28.9333 26.2808 28.5409L18.9235 35.3136ZM13.0102 26.9657C13.2307 31.9784 16.9534 36.0667 21.792 36.8611L23.4123 26.9933C23.1874 26.9564 23.0107 26.7556 23.0006 26.5263L13.0102 26.9657ZM10 22.5001C10 26.6486 12.6562 30.1637 16.3452 31.4623L19.6656 22.0296C19.8534 22.0958 20 22.2744 20 22.5001H10ZM12.8787 15.6878C11.109 17.408 10 19.8289 10 22.5001H20C20 22.6399 19.9361 22.7735 19.8488 22.8584L12.8787 15.6878ZM11 15.0001C11 16.7425 11.1491 18.4541 11.4363 20.1217L21.2912 18.4245C21.1001 17.3151 21 16.1713 21 15.0001H11ZM11.0249 13.7683C11.0084 14.1771 11 14.5878 11 15.0001H21C21 14.7228 21.0056 14.4471 21.0167 14.173L11.0249 13.7683ZM10 11.5001C10 13.8406 10.9525 15.9681 12.4792 17.5001L19.5625 10.4413C19.8274 10.7072 20 11.0883 20 11.5001H10ZM14.5662 3.96438C11.863 5.37669 10 8.21675 10 11.5001H20C20 12.0854 19.6636 12.5838 19.1969 12.8276L14.5662 3.96438Z" fill="white" mask="url(#path-3-inside-1)"/>
<path d="M1 25C1 11.7452 11.7452 1 25 0.999998C38.2548 0.999997 49 11.7452 49 25C49 38.2548 38.2548 49 25 49C11.7452 49 1 38.2548 1 25Z" stroke="#D53DEA" stroke-width="2"/>
<path fill-rule="evenodd" clip-rule="evenodd" d="M62.3975 35.7219L64.2735 36.4589C66.0133 33.211 67 29.4992 67 25.557C67 21.2776 65.8373 17.2697 63.8107 13.832L61.9791 14.6661C63.8967 17.8461 65 21.5727 65 25.557C65 29.2418 64.0563 32.7063 62.3975 35.7219ZM60.6563 35.0379C62.2416 32.2387 63.1466 29.0035 63.1466 25.557C63.1466 21.8461 62.0975 18.3803 60.2797 15.4399L58.443 16.2763C60.1546 18.9566 61.1466 22.1409 61.1466 25.557C61.1466 28.7466 60.2817 31.7343 58.7737 34.2983L60.6563 35.0379ZM57.0242 33.611C58.4633 31.2672 59.2932 28.509 59.2932 25.557C59.2932 22.4139 58.3524 19.4905 56.737 17.0531L54.8903 17.894C56.4049 20.0663 57.2932 22.7079 57.2932 25.557C57.2932 28.2532 56.4977 30.7636 55.1286 32.8663L57.0242 33.611Z" fill="#D53DEA"/>
</svg>
