<svg width="1570" height="270" viewBox="0 0 1570 270" fill="none" xmlns="http://www.w3.org/2000/svg">
<rect width="1570" height="269.708" fill="white"/>
<path fill-rule="evenodd" clip-rule="evenodd" d="M1249.21 71.1262C1257.31 69.8326 1260.33 71.2276 1263.42 77.579C1262.13 79.8546 1258.43 81.0626 1255.15 80.2677C1253.01 77.5011 1253.01 77.5011 1251.53 77.1426C1251.37 77.2673 1251.12 77.3608 1251.05 77.54C1250.44 79.0675 1249.71 80.3534 1247.86 80.7586C1247.18 80.9067 1246.63 81.7406 1246.05 82.2861C1245.22 83.0576 1244.32 83.5174 1243.13 83.5174C1241.97 83.5174 1240.83 83.7668 1239.72 83.8993C1238.68 83.6577 1237.92 82.3562 1236.51 83.3771C1237.08 85.9177 1238.33 88.2869 1239.23 90.8664C1243.52 92.503 1247.83 94.1551 1252.32 95.8696C1252.53 93.9058 1251.24 92.6588 1250.94 90.8898C1251.22 90.5703 1251.51 90.0325 1251.97 89.7676C1257.33 86.6737 1262.63 83.4629 1268.66 81.7951C1273.29 80.517 1277.92 79.2935 1282.5 78.0622C1287.23 80.6028 1292.02 82.7225 1296.02 86.5022C1292 90.9132 1288.2 95.0903 1284.42 99.2285C1283.95 100.452 1283.48 101.652 1283.2 102.385C1280.85 103.686 1279.04 104.933 1277.04 105.736C1273.93 106.998 1270.63 107.606 1267.22 107.388C1266.13 107.318 1265.05 107.427 1263.96 107.435C1263.38 107.443 1262.8 107.45 1262.21 107.388C1260.27 107.178 1258.33 106.897 1256.38 106.718C1252.62 106.375 1248.81 106.289 1245.08 105.728C1241.48 105.19 1237.99 104.076 1234.69 102.502C1233.07 101.73 1231.76 100.592 1230.87 99.0181C1229.94 97.3815 1229 95.7605 1227.92 93.8824C1227.66 94.4825 1227.46 94.8331 1227.35 95.1994C1225.84 100.21 1226.65 105.136 1227.82 110.069C1228.76 114.036 1229.69 118.002 1230.49 121.992C1231.01 124.533 1230.91 127.167 1231.66 129.708C1232.08 131.126 1231.93 132.716 1232.11 134.212C1232.17 134.758 1232.45 135.288 1232.67 135.927C1233.6 135.973 1234.44 136.02 1235.51 136.075C1234.85 133.799 1232.8 132.272 1233.42 129.536C1234.9 128.297 1236.6 126.863 1238.31 125.437C1241.94 125.951 1244.73 127.658 1246.77 130.479C1247.23 131.118 1247.27 132.124 1247.37 132.973C1247.46 133.823 1247.38 134.688 1247.38 135.716C1248.62 135.716 1249.66 135.716 1250.89 135.716C1250.63 134.352 1250.41 133.152 1250.18 131.968C1249.94 130.729 1249.78 129.451 1250.51 128.359C1251.01 127.611 1251.78 127.027 1252.48 126.435C1252.74 126.224 1253.16 126.193 1253.5 126.084C1257.38 124.853 1258 124.837 1260.82 128.593C1261.5 129.505 1262.16 130.581 1262.4 131.679C1262.67 132.895 1262.46 134.22 1262.46 135.693C1263.85 135.693 1265.31 135.693 1266.99 135.693C1267.21 134.781 1267.44 133.83 1267.62 133.059C1270.26 131.937 1272.71 130.9 1275.17 129.856C1275.24 129.825 1275.32 129.801 1275.37 129.762C1277.96 127.752 1281.2 127.378 1284.15 126.271C1287.14 125.133 1289.96 123.551 1292.96 122.421C1294.48 121.844 1296.21 121.665 1297.86 121.595C1301.27 121.431 1304.7 121.431 1308.12 121.4C1310.82 121.377 1313.51 121.408 1316.21 121.392C1316.91 121.385 1317.62 121.307 1318.46 121.252C1318.46 120.075 1318.46 119.078 1318.46 118.127C1317.53 116.553 1316.61 115.01 1315.54 113.202C1309.24 113.202 1302.71 113.202 1296.28 113.202C1294.36 111.37 1293.75 109.547 1294.36 106.998C1295.79 100.99 1296.89 94.8877 1298.12 88.8246C1298.43 87.3283 1298.69 85.8242 1299.06 84.3435C1299.23 83.6655 1299.6 83.0343 1299.92 82.3017C1301.14 82.3796 1302.22 82.4731 1303.31 82.5121C1307.02 82.6602 1310.73 82.7927 1314.45 82.9173C1323.19 83.2135 1331.92 83.533 1340.66 83.7512C1342.4 83.798 1343.42 84.8734 1344.6 85.7073C1344.42 88.1856 1339.1 110.957 1337.85 113.116C1335.15 113.116 1332.27 113.116 1329.16 113.116C1329.27 116.031 1330.08 118.478 1330.59 120.901C1332.44 121.548 1343.98 121.579 1346.09 120.94C1346.14 120.309 1346.23 119.608 1346.24 118.899C1346.26 117.005 1346.3 115.111 1346.23 113.217C1346.18 111.55 1346.71 110.248 1348.12 109.29C1348.63 108.931 1349.08 108.456 1349.62 107.965C1348.58 105.596 1347.6 103.336 1346.62 101.076C1345.84 99.2597 1345.9 98.9012 1347.08 97.3192C1348.9 96.8828 1355.75 96.9061 1357.59 97.3893C1358.09 98.4882 1358.64 99.6649 1359.17 100.857C1360.77 104.427 1362.58 107.926 1363.66 111.713C1364.02 112.945 1364.16 114.23 1364.41 115.547C1361.7 116.6 1359.1 116.537 1356.5 116.631C1356.27 118.104 1356.07 119.382 1355.85 120.792C1357.53 121.992 1357.68 123.878 1357.69 125.788C1357.7 133.207 1357.7 140.634 1357.7 148.061C1357.7 187.915 1357.7 227.777 1357.7 267.624C1357.7 268.201 1357.63 268.77 1357.6 269.323C1355.99 269.759 1142.76 269.861 1140 269.44C1140 225.728 1140 181.977 1140 137.992C1144.68 137.992 1149.23 137.992 1154.04 137.992C1154.04 133.791 1154.04 129.817 1154.04 125.702C1162.14 125.702 1169.99 125.702 1177.63 125.702C1178.42 124.876 1179.03 124.221 1179.79 123.403C1179.88 122.398 1179.85 121.135 1180.12 119.951C1180.59 117.901 1181.19 115.875 1181.88 113.888C1182.24 112.835 1182.5 111.861 1182.36 110.716C1182.25 109.749 1182.53 108.728 1182.69 107.739C1182.94 106.242 1183.39 104.762 1183.48 103.258C1183.53 102.393 1183.21 101.356 1182.71 100.639C1180.21 97.0542 1177.95 93.3291 1176.02 89.4013C1175.83 89.0116 1175.68 88.5596 1175.37 88.2713C1173.05 86.1048 1172.38 83.1901 1171.75 80.2755C1171.02 76.862 1170.28 73.4486 1169.74 70.004C1169.35 67.5725 1169.11 65.0865 1169.08 62.6239C1169.01 58.0103 1171.28 54.7605 1175.38 52.7343C1175.97 52.4459 1176.56 52.1732 1177.15 51.877C1177.27 51.8147 1177.37 51.69 1177.6 51.4874C1177.64 51.0354 1177.71 50.4665 1177.74 49.8976C1177.9 46.3361 1177.98 42.7668 1178.2 39.2053C1178.53 34.0774 1180.23 29.4404 1183.15 25.1853C1184.27 23.5566 1184.98 21.7018 1184.94 19.5431C1184.87 14.9451 1185.93 10.4484 1188.36 6.62195C1191.21 2.12527 1195.71 -0.126961 1201.15 0.00552319C1204.46 0.0834552 1207.61 1.01864 1210.68 2.211C1213.76 3.39556 1215.62 5.71015 1216.77 8.68715C1217.74 11.1888 1218.67 13.706 1219.69 16.4024C1222.3 17.5792 1225.02 18.7715 1227.71 20.034C1229.22 20.7432 1230.74 21.4836 1232.15 22.3486C1233.94 23.4475 1233.85 25.0061 1232.07 26.0738C1230.97 26.7284 1229.84 26.6661 1228.7 26.2374C1227.62 25.8244 1226.58 25.0918 1225.48 24.9749C1223.54 24.7645 1221.56 24.9126 1219.45 24.9126C1218.66 26.027 1218.05 27.4064 1218.63 28.7001C1219.68 31.0147 1219.07 33.1344 1218.33 35.2619C1217.35 38.0753 1216.26 40.8575 1215.18 43.6318C1214.89 44.3644 1214.42 45.0268 1214.05 45.697C1213.32 46.0244 1212.66 46.3205 1212.02 46.6088C1212.24 47.9337 1213.97 50.1002 1216.58 52.329C1217.57 52.4849 1218.65 52.6096 1219.72 52.8278C1224.21 53.763 1226.97 56.5686 1228.27 60.9016C1228.86 62.8421 1229.42 64.7904 1230.03 66.8244C1230.72 66.8712 1231.28 66.9569 1231.84 66.9491C1235.11 66.9101 1238.39 66.9179 1241.67 66.7776C1243.81 66.6841 1245.49 67.4401 1246.93 68.9441C1247.69 69.7079 1248.49 70.4404 1249.21 71.1262ZM1189.34 37.4596C1190.3 38.9247 1190.92 39.8833 1191.54 40.8497C1191.68 40.8029 1191.82 40.7561 1191.96 40.7094C1191.96 39.6339 1191.96 38.5585 1191.96 37.2414C1191.19 37.3038 1190.55 37.3505 1189.34 37.4596ZM1355.01 116.537C1353.49 117.776 1354.2 119.062 1354.16 120.73C1355 119.249 1355.72 118.252 1355.01 116.537ZM1317.73 113.248C1317.17 114.075 1317.17 114.075 1318.28 114.768C1318.06 114.16 1317.91 113.763 1317.73 113.248Z" fill="#7A24CD"/>
<rect x="1017" y="184" width="113" height="85" fill="#D53DEA"/>
<rect x="1084.8" y="184" width="45.2" height="85" fill="#E163F3"/>
<rect x="1026" y="258" width="24" height="3" fill="#D53DEA"/>
<path d="M1029.5 256L1029.5 256.5L1030.5 256.5L1030.5 256L1029.5 256ZM1030 239L1027.11 244L1032.89 244L1030 239ZM1030.5 256L1030.5 243.5L1029.5 243.5L1029.5 256L1030.5 256Z" fill="#D53DEA"/>
<path d="M1044.5 256L1044.5 256.5L1045.5 256.5L1045.5 256L1044.5 256ZM1045 239L1042.11 244L1047.89 244L1045 239ZM1045.5 256L1045.5 243.5L1044.5 243.5L1044.5 256L1045.5 256Z" fill="#D53DEA"/>
<rect x="565" y="164" width="139.588" height="105" fill="#D53DEA"/>
<rect x="637" y="164" width="68" height="105" fill="#E163F3"/>
<rect x="576" y="255" width="29" height="4" fill="#E163F3"/>
<path d="M580 252L580 253L582 253L582 252L580 252ZM581 226L575.226 236L586.774 236L581 226ZM582 252L582 235L580 235L580 252L582 252Z" fill="#E163F3"/>
<path d="M598 252L598 253L600 253L600 252L598 252ZM599 226L593.226 236L604.774 236L599 226ZM600 252L600 235L598 235L598 252L600 252Z" fill="#E163F3"/>
<rect x="244" y="188" width="107.682" height="81" fill="#D53DEA"/>
<rect x="326" y="188" width="26" height="81" fill="#E163F3"/>
<rect x="252.486" y="258.2" width="22.3714" height="3.08571" fill="#E163F3"/>
<path d="M255.343 255.886L255.343 256.886L257.343 256.886L257.343 255.886L255.343 255.886ZM256.343 235.829L250.569 245.829L262.116 245.829L256.343 235.829ZM257.343 255.886L257.343 244.829L255.343 244.829L255.343 255.886L257.343 255.886Z" fill="#E163F3"/>
<path d="M269.229 255.886L269.229 256.886L271.229 256.886L271.229 255.886L269.229 255.886ZM270.229 235.829L264.455 245.829L276.002 245.829L270.229 235.829ZM271.229 255.886L271.229 244.829L269.229 244.829L269.229 255.886L271.229 255.886Z" fill="#E163F3"/>
<rect x="921.918" y="205" width="82.0823" height="64" fill="#D53DEA"/>
<rect x="989" y="205" width="15" height="64" fill="#E163F3"/>
<rect x="735.899" y="213" width="73.1294" height="56" fill="#D53DEA"/>
<rect x="782.675" y="213" width="26.4072" height="56" fill="#E163F3"/>
<rect x="801" y="184" width="111" height="85" fill="#D53DEA"/>
<rect x="872" y="184" width="40.0823" height="85" fill="#E163F3"/>
<rect x="62" y="152.627" width="151.97" height="116.373" fill="#D53DEA"/>
<rect x="159.206" y="152.627" width="54.8765" height="116.373" fill="#E163F3"/>
<rect x="450" y="174" width="95.0119" height="95" fill="#D53DEA"/>
<rect x="510.773" y="174" width="34.309" height="95" fill="#E163F3"/>
<rect x="341.027" y="205" width="64.008" height="64" fill="#D53DEA"/>
<rect x="381.969" y="205" width="23.1134" height="64" fill="#E163F3"/>
<g style="mix-blend-mode:overlay">
<rect width="1570" height="269" fill="url(#paint0_linear)"/>
</g>
<defs>
<linearGradient id="paint0_linear" x1="785" y1="104.988" x2="785" y2="269" gradientUnits="userSpaceOnUse">
<stop stop-color="#9C9C9C"/>
<stop offset="0.847572" stop-color="#565656"/>
</linearGradient>
</defs>
</svg>
